<?xml version="1.0" encoding="UTF-8" standalone="no" ?>
<!DOCTYPE svg PUBLIC "-//W3C//DTD SVG 1.1//EN" "http://www.w3.org/Graphics/SVG/1.1/DTD/svg11.dtd">
<svg xmlns="http://www.w3.org/2000/svg" xmlns:xlink="http://www.w3.org/1999/xlink" version="1.1" width="640" height="480" viewBox="0 0 640 480" xml:space="preserve">
<desc>Created with Fabric.js 3.6.6</desc>
<defs>
</defs>
<g transform="matrix(0.45 0 0 0.45 319.25 250.25)"  >
<g style=""   >
		<g transform="matrix(33.33 0 0 33.33 -50 -50)"  >
<path style="stroke: none; stroke-width: 1; stroke-dasharray: none; stroke-linecap: butt; stroke-dashoffset: 0; stroke-linejoin: miter; stroke-miterlimit: 4; fill: rgb(0,0,0); fill-rule: nonzero; opacity: 0.15;"  transform=" translate(-10.5, -10.5)" d="M 18 10.5 C 18 14.6421 14.6421 18 10.5 18 C 6.35786 18 3 14.6421 3 10.5 C 3 6.35786 6.35786 3 10.5 3 C 14.6421 3 18 6.35786 18 10.5 Z" stroke-linecap="round" />
</g>
		<g transform="matrix(33.33 0 0 33.33 -16.67 -16.67)"  >
<path style="stroke: rgb(0,0,0); stroke-width: 1.5; stroke-dasharray: none; stroke-linecap: round; stroke-dashoffset: 0; stroke-linejoin: round; stroke-miterlimit: 4; fill: none; fill-rule: nonzero; opacity: 1;"  transform=" translate(-11.5, -11.5)" d="M 20 20 L 15.8033 15.8033 M 18 10.5 C 18 6.35786 14.6421 3 10.5 3 C 6.35786 3 3 6.35786 3 10.5 C 3 14.6421 6.35786 18 10.5 18 C 14.6421 18 18 14.6421 18 10.5 Z" stroke-linecap="round" />
</g>
</g>
</g>
<g transform="matrix(0.18 0 0 0.18 296.25 226.25)"  >
<g style=""   >
		<g transform="matrix(33.33 0 0 33.33 -116.67 -16.07)"  >
<path style="stroke: none; stroke-width: 1; stroke-dasharray: none; stroke-linecap: butt; stroke-dashoffset: 0; stroke-linejoin: miter; stroke-miterlimit: 4; fill: rgb(33,33,33); fill-rule: nonzero; opacity: 1;"  transform=" translate(-8.5, -11.52)" d="M 12.1873 4.14049 C 11.2229 3.41714 9.84236 4.0695 9.78883 5.27389 L 9.71211 7 H 12 C 12.5523 7 13 7.44772 13 8 C 13 8.55228 12.5523 9 12 9 H 9.62322 L 9.22988 17.8501 C 9.0996 20.7815 5.63681 22.261 3.42857 20.3287 L 3.34151 20.2526 C 2.92587 19.8889 2.88375 19.2571 3.24743 18.8415 C 3.61112 18.4259 4.24288 18.3837 4.65852 18.7474 L 4.74558 18.8236 C 5.69197 19.6517 7.17602 19.0176 7.23186 17.7613 L 7.62125 9 H 6 C 5.44772 9 5 8.55228 5 8 C 5 7.44772 5.44772 7 6 7 H 7.71014 L 7.7908 5.18509 C 7.9157 2.37483 11.1369 0.852675 13.3873 2.54049 L 13.6 2.69999 C 14.0418 3.03136 14.1314 3.65817 13.8 4.09999 C 13.4686 4.54182 12.8418 4.63136 12.4 4.29999 L 12.1873 4.14049 Z" stroke-linecap="round" />
</g>
		<g transform="matrix(33.33 0 0 33.33 133.33 116.64)"  >
<path style="stroke: none; stroke-width: 1; stroke-dasharray: none; stroke-linecap: butt; stroke-dashoffset: 0; stroke-linejoin: miter; stroke-miterlimit: 4; fill: rgb(33,33,33); fill-rule: nonzero; opacity: 1;"  transform=" translate(-16, -15.5)" d="M 13.082 13.0462 C 13.3348 12.9071 13.6525 13.0103 13.7754 13.2714 L 14.5879 14.9979 L 11.2928 18.2929 C 10.9023 18.6834 10.9023 19.3166 11.2928 19.7071 C 11.6834 20.0977 12.3165 20.0977 12.707 19.7071 L 15.493 16.9212 L 16.2729 18.5786 C 16.9676 20.0548 18.8673 20.4808 20.1259 19.4425 L 20.6363 19.0214 C 21.0623 18.6699 21.1228 18.0397 20.7713 17.6136 C 20.4198 17.1876 19.7896 17.1272 19.3636 17.4787 L 18.8531 17.8998 C 18.6014 18.1074 18.2215 18.0222 18.0825 17.727 L 16.996 15.4182 L 19.707 12.7071 C 20.0976 12.3166 20.0976 11.6834 19.707 11.2929 C 19.3165 10.9024 18.6834 10.9024 18.2928 11.2929 L 16.0909 13.4948 L 15.585 12.4198 C 14.9708 11.1144 13.3822 10.5985 12.1182 11.2937 L 11.518 11.6238 C 11.0341 11.89 10.8576 12.498 11.1237 12.982 C 11.3899 13.4659 11.998 13.6424 12.4819 13.3762 L 13.082 13.0462 Z" stroke-linecap="round" />
</g>
</g>
</g>
<g transform="matrix(1 0 0 1 318 62.84)" style=""  >
		<text xml:space="preserve" font-family="'Lucida Console', Monaco, monospace" font-size="59" font-style="normal" font-weight="normal" style="stroke: none; stroke-width: 1; stroke-dasharray: none; stroke-linecap: butt; stroke-dashoffset: 0; stroke-linejoin: round; stroke-miterlimit: 4; fill: rgb(0,0,0); fill-rule: nonzero; opacity: 1; white-space: pre;" ><tspan x="-247.5" y="18.53" style="stroke-width: 1; font-style: normal; font-weight: normal; fill: rgb(0,0,0); ">P</tspan><tspan x="-209.95" y="18.53" style="stroke-width: 1; font-style: normal; font-weight: normal; fill: rgb(0,0,0); ">r</tspan><tspan x="-172.4" y="18.53" style="stroke-width: 1; font-style: normal; font-weight: normal; fill: rgb(0,0,0); ">o</tspan><tspan x="-134.85" y="18.53" style="stroke-width: 1; font-style: normal; font-weight: normal; fill: rgb(0,0,0); ">o</tspan><tspan x="-97.3" y="18.53" style="stroke-width: 1; font-style: normal; font-weight: normal; fill: rgb(0,0,0); ">f</tspan><tspan x="-59.75" y="18.53" style="stroke-width: 1; font-style: normal; font-weight: normal; fill: rgb(0,0,0); white-space: pre; "> </tspan><tspan x="-22.2" y="18.53" style="stroke-width: 1; font-style: normal; font-weight: normal; fill: rgb(0,0,0); ">B</tspan><tspan x="15.35" y="18.53" style="stroke-width: 1; font-style: normal; font-weight: normal; fill: rgb(0,0,0); ">r</tspan><tspan x="52.9" y="18.53" style="stroke-width: 1; font-style: normal; font-weight: normal; fill: rgb(0,0,0); ">o</tspan><tspan x="90.45" y="18.53" style="stroke-width: 1; font-style: normal; font-weight: normal; fill: rgb(0,0,0); ">w</tspan><tspan x="128" y="18.53" style="stroke-width: 1; font-style: normal; font-weight: normal; fill: rgb(0,0,0); ">s</tspan><tspan x="165.55" y="18.53" style="stroke-width: 1; font-style: normal; font-weight: normal; fill: rgb(0,0,0); ">e</tspan><tspan x="203.1" y="18.53" style="stroke-width: 1; font-style: normal; font-weight: normal; fill: rgb(0,0,0); ">r</tspan></text>
</g>
</svg>